<svg xmlns="http://www.w3.org/2000/svg" width="1000" height="423" viewBox="0 0 1000 423"><path fill="#fff" d="M0 423h1000V0H0z"/><g fill-rule="evenodd" clip-rule="evenodd" fill="#099"><path d="M160.6 261.812v-20.636c11.744 3.696 22.137 5.543 31.176 5.543 12.482 0 18.723-3.297 18.723-9.892 0-2.456-.908-4.522-2.729-6.193-1.862-1.774-6.63-4.237-14.294-7.387-13.749-5.653-22.715-10.475-26.885-14.462-5.406-5.264-8.108-11.903-8.108-19.925 0-10.33 3.938-18.204 11.808-23.614 7.783-5.364 17.918-8.043 30.42-8.043 6.889 0 16.858 1.268 29.9 3.807v19.849c-9.703-3.875-18.71-5.81-27.032-5.81-11.719 0-17.577 3.218-17.577 9.667 0 2.412 1.18 4.377 3.543 5.901 1.965 1.233 7.381 3.84 16.235 7.826 12.749 5.662 21.236 10.583 25.464 14.769 5.018 4.965 7.531 11.391 7.531 19.266 0 11.32-4.923 19.958-14.764 25.907-7.972 4.826-18.311 7.228-31.007 7.228-10.722-.001-21.526-1.265-32.404-3.801zM255.258 159.02h-.002 29.185V263.5h-29.183zM311.206 263.5V159.02h74.85v18.897h-46.723v23.592h40.67v17.239h-40.67v24.795h47.927V263.5h-76.054zM406.312 263.5V159.02h37.838l26.288 66.757 26.948-66.757h35.942V263.5h-27.674v-73.974l-30.639 75.036h-18.09l-30.051-75.036V263.5h-20.562zM560.098 263.5V159.02h74.847v18.897h-46.722v23.592h40.673v17.239h-40.673v24.795h47.931V263.5h-76.056zM655.361 263.5V159.02h33.824l35.884 69.944V159.02h20.554V263.5h-32.859l-36.839-70.882V263.5h-20.564zM766.345 261.812v-20.636c11.641 3.696 22.035 5.543 31.179 5.543 12.481 0 18.717-3.297 18.717-9.892 0-2.456-.886-4.522-2.646-6.193-1.871-1.774-6.656-4.237-14.366-7.387-13.712-5.604-22.683-10.427-26.893-14.462-5.405-5.218-8.103-11.88-8.103-19.996 0-10.285 3.931-18.133 11.806-23.543 7.772-5.364 17.922-8.043 30.424-8.043 7.028 0 16.137 1.116 27.31 3.359l2.584.448v19.849c-9.705-3.875-18.741-5.81-27.106-5.81-11.672 0-17.494 3.218-17.494 9.667 0 2.412 1.171 4.377 3.531 5.901 1.871 1.187 7.307 3.793 16.312 7.826 12.654 5.662 21.122 10.583 25.387 14.769 5.026 4.965 7.531 11.391 7.531 19.266 0 11.32-4.896 19.958-14.687 25.907-8.017 4.826-18.383 7.228-31.075 7.228-10.738-.001-21.542-1.265-32.411-3.801z"/></g></svg>
