<?xml version="1.0" encoding="utf-8"?>
<!-- Generator: Adobe Illustrator 20.0.0, SVG Export Plug-In . SVG Version: 6.00 Build 0)  -->
<svg xmlns="http://www.w3.org/2000/svg" xmlns:xlink="http://www.w3.org/1999/xlink" version="1.1" id="Ebene_1" x="0px" y="0px" viewBox="0 0 250 250" enable-background="new 0 0 250 250" xml:space="preserve">
<g>
	<g>
		<path fill="#FFFFFF" d="M86.54,172.864l3.369-19.922c11.865,4.98,21.924,7.471,30.176,7.471c5.371,0,9.326-1.318,11.865-3.955    c2.197-2.294,3.296-5.102,3.296-8.423c0-3.027-1.124-5.395-3.369-7.104c-2.246-1.659-7.496-4.175-15.747-7.544    c-7.569-3.124-12.573-5.347-15.015-6.665c-5.566-3.076-9.448-6.665-11.646-10.767c-1.856-3.466-2.783-7.568-2.783-12.305    c0-7.372,2.002-13.843,6.006-19.409c6.152-8.643,16.26-12.964,30.322-12.964c10.156,0,21.191,1.88,33.105,5.64l-4.688,19.043    c-5.127-1.904-8.716-3.149-10.767-3.735c-5.811-1.758-11.206-2.637-16.187-2.637c-4.395,0-7.74,0.977-10.034,2.93    c-2.393,2.1-3.589,4.761-3.589,7.983c0,3.028,1.318,5.42,3.955,7.178c2.002,1.417,6.567,3.589,13.696,6.519    c8.643,3.614,14.037,5.982,16.187,7.104c6.25,3.321,10.449,7.349,12.598,12.085c1.659,3.614,2.49,7.886,2.49,12.817    c0,11.133-3.784,19.556-11.353,25.269c-6.445,4.834-15.479,7.251-27.1,7.251C109.074,178.723,97.478,176.771,86.54,172.864z"/>
	</g>
	<path fill="#009999" d="M217.03,128.775c-1.688,0-3.337-0.162-4.935-0.469c-0.392,10.851-2.712,21.377-6.923,31.333   c-4.482,10.597-10.901,20.116-19.078,28.293c-8.177,8.177-17.696,14.596-28.293,19.078c-10.965,4.638-22.62,6.99-34.64,6.99   s-23.674-2.352-34.639-6.99c-10.597-4.482-20.116-10.901-28.293-19.078c-8.177-8.177-14.596-17.696-19.078-28.293   c-4.638-10.965-6.989-22.62-6.989-34.639s2.352-23.674,6.989-34.639c4.482-10.597,10.901-20.116,19.078-28.293   c8.177-8.177,17.696-14.596,28.293-19.078c10.965-4.638,22.62-6.99,34.639-6.99s23.674,2.352,34.64,6.99   c10.597,4.482,20.116,10.901,28.293,19.078c5.984,5.984,11.022,12.69,15.053,20.007c2.897-2.232,6.275-3.868,9.954-4.724   C194.17,46.169,161.138,25,123.161,25c-55.228,0-100,44.772-100,100s44.772,100,100,100c54.205,0,98.335-43.128,99.952-96.941   C221.162,128.526,219.125,128.775,217.03,128.775z"/>
	<circle fill="#ED1E79" cx="216.53" cy="102.763" r="10.309"/>
</g>
</svg>
